<?xml version="1.0" encoding="utf-8"?>
<!-- Generator: Adobe Illustrator 24.0.1, SVG Export Plug-In . SVG Version: 6.00 Build 0)  -->
<svg version="1.1" id="Layer_1" xmlns="http://www.w3.org/2000/svg" xmlns:xlink="http://www.w3.org/1999/xlink" x="0px" y="0px"
	 viewBox="0 0 40 46" style="enable-background:new 0 0 40 46;" xml:space="preserve">
<style type="text/css">
	.st0{fill:#075399;}
	.st1{fill:#F9CE0B;}
	.st2{fill:#075398;}
	.st3{fill:#F8CD0B;}
	.st4{fill:#F1E690;}
	.st5{fill:#E3D662;}
	.st6{fill:#F4E48E;}
	.st7{fill:#CCC955;}
	.st8{fill:#165D91;stroke:#D3B01C;stroke-width:0.25;stroke-miterlimit:10;}
	.st9{font-family:'BalooBhai2-Bold';}
	.st10{font-size:4.8019px;}
</style>
<title>Group</title>
<desc>Created with Sketch.</desc>
<g>
	<path class="st0" d="M11.3,12.1c0.7,0.6,1.4,1.2,2,1.8c0.7,0.6,1.4,1.2,2,1.7c0.1,0.1,0.2,0.2,0.2,0.3c0.3,2,0.5,3.9,0.8,5.9
		c0.1,0.7,0.2,1.5,0.3,2.2c0,0.1,0,0.2,0,0.3c-0.4-0.3-0.7-0.6-1.1-0.9c-3.4-2.9-6.7-5.8-10-8.7c-0.5-0.5-1.1-0.9-1.6-1.4
		c-0.1-0.1-0.2-0.1-0.3-0.2c-0.5-0.5-0.6-0.9-0.3-1.5C4,10,4.6,8.5,5.1,7c0,0,0,0,0-0.1C6,7.7,6.9,8.4,7.7,9.1
		c0.9,0.8,1.9,1.6,2.8,2.4C10.8,11.7,11,12,11.3,12.1z"/>
	<path class="st0" d="M34.3,6.9c0.3,0.9,0.6,1.8,1,2.7c0.2,0.6,0.5,1.3,0.8,1.9c0.3,0.7,0.2,1.1-0.4,1.6c-1.4,1.2-2.8,2.5-4.2,3.7
		c-2.3,2.1-4.7,4.1-7.1,6.2c-0.5,0.4-1,0.8-1.5,1.3c0,0-0.1,0.1-0.1,0c0.1-0.5,0.1-0.9,0.2-1.4c0.2-1.7,0.5-3.4,0.7-5.1
		c0.1-0.6,0.2-1.2,0.3-1.9c0-0.1,0-0.2,0.1-0.3c1.4-1.2,2.7-2.3,4.1-3.5c0.3-0.1,0.4-0.3,0.6-0.5c0.7-0.6,1.4-1.2,2-1.7
		C31.9,9,33,8,34.1,7.1C34.2,7,34.3,7,34.3,6.9z"/>
	<path class="st0" d="M34.3,6.9c0,0.2-0.2,0.3-0.4,0.4c-0.6,0.5-1.2,1-1.8,1.5c-0.6,0.5-1.3,1.1-1.9,1.6c-0.6,0.5-1.1,1-1.7,1.4
		c-0.1,0.1-0.2,0.3-0.4,0.3c0.2-0.2,0.4-0.4,0.7-0.6c-2.1,0-4.1-0.1-6.1-0.1c0.1-0.4,0.3-0.8,0.5-1.2c0.7-1.4,1.6-2.8,2.7-3.9
		c0.1-0.1,0.2-0.2,0.4-0.2c1.5,0,3-0.1,4.5-0.1c0.8,0,1.6,0,2.5-0.1C33.8,6,34.2,6.3,34.3,6.9z"/>
	<path class="st0" d="M11.3,12.1C11.2,12.2,11.1,12,11,12c-0.8-0.6-1.5-1.3-2.3-1.9C8,9.4,7.2,8.8,6.4,8.1C6,7.8,5.6,7.4,5.2,7.1
		C5.2,7,5.1,7,5.1,6.9C5.3,6.3,5.6,6,6.3,6c2,0,4.1,0.1,6.1,0.1c0,0,0,0,0,0c0.6-0.1,0.9,0.2,1.3,0.6c1.3,1.3,2.2,2.9,3,4.5
		c0,0.1,0.2,0.2,0,0.2c-0.6,0-1.2,0-1.8,0c-1.3,0-2.6,0.1-3.9,0.1c-0.1,0-0.1,0-0.2,0C10.9,11.8,11.1,12,11.3,12.1z"/>
	<path class="st1" d="M12.9,6.2c4.4,0.2,8.8,0.2,13.1,0c0,0.1-0.1,0.2-0.1,0.2c-1.3,1.5-2.2,3.2-2.8,5.1c-0.2,0.6-0.2,1.3-0.3,1.9
		c-0.3,2-0.6,4-0.9,6.1c-0.2,1.5-0.4,3.1-0.7,4.6c-0.4,2.7-0.8,5.4-1.2,8.1c-0.2,1-0.3,2.1-0.5,3.1c0,0.1,0,0.2-0.1,0.3
		c-0.1-0.4-0.1-0.9-0.2-1.3c-0.3-2.1-0.6-4.2-0.9-6.2c-0.3-2.1-0.6-4.2-0.9-6.3c-0.3-2-0.6-4-0.9-6.1c-0.2-1.1-0.3-2.3-0.5-3.4
		c-0.1-0.8-0.5-1.5-0.8-2.2C14.9,8.7,14,7.4,13,6.3C13,6.3,13,6.3,12.9,6.2z"/>
	<g>
		<path class="st2" d="M22,31.8c-0.2,0.5-0.5,0.9-0.8,1.3c-0.5,0.8-1,1.6-1.5,2.4c-1.5-2.5-3-4.9-4.5-7.4c0.2,0,0.4,0,0.6,0
			c0.4,0,0.8,0.2,1.2,0.4c1.1,0.5,2,1,3,1.7c0.1,0.1,0.3,0.2,0.4,0.3c0.4,0.3,0.7,0.6,1.1,0.8c0,0,0,0,0,0c0.1,0.1,0.2,0.1,0.3,0.2
			c0,0,0,0,0,0C21.9,31.6,22,31.7,22,31.8z"/>
		<path class="st3" d="M20.3,30.5c-0.6-0.4-1.1-0.8-1.7-1.2c-0.8-0.5-1.6-0.9-2.5-1.2c-0.1,0-0.2-0.1-0.4-0.1c0.2-0.1,0.4-0.1,0.5,0
			c0.3,0,0.6,0,0.8,0c2.3,0,4.5,0.1,6.8,0.1c0.1,0,0.2,0,0.3,0c0.2,0,0.2,0.1,0.1,0.2c0,0-0.1,0.1-0.1,0.1c-0.1,0.1-0.2,0.3-0.3,0.4
			c-0.1,0.1-0.2,0.3-0.3,0.4c-0.1,0.2-0.2,0.3-0.3,0.5c0,0.1-0.1,0.1-0.1,0.2C23,30.2,23,30.3,23,30.4l0,0c-0.1,0.1-0.1,0.1-0.1,0.2
			c-0.1,0.2-0.2,0.4-0.4,0.6c-0.1,0.1-0.1,0.1-0.2,0.2c0,0-0.1,0.1-0.1,0.1c-0.1,0.1-0.1,0.1-0.2,0.2c0,0,0,0,0,0
			c-0.1-0.1-0.2-0.1-0.3-0.1l0,0c-0.1-0.1-0.2-0.2-0.3-0.2l0,0C21.1,31.1,20.7,30.8,20.3,30.5z"/>
		<path class="st4" d="M23.3,29.9c0-0.2,0.2-0.3,0.3-0.5C23.5,29.6,23.4,29.8,23.3,29.9z"/>
		<path class="st5" d="M21.8,31.6c0.1,0,0.2,0,0.3,0.1c0,0,0,0,0,0C21.9,31.7,21.8,31.7,21.8,31.6z"/>
		<path class="st5" d="M22.3,31.4c0-0.1,0-0.2,0.2-0.2C22.4,31.3,22.4,31.3,22.3,31.4z"/>
		<path class="st6" d="M23,30.4c0-0.1,0-0.2,0.1-0.2C23.1,30.3,23.1,30.3,23,30.4z"/>
		<path class="st6" d="M22.8,30.6c0-0.1,0-0.2,0.1-0.2C23,30.5,22.9,30.5,22.8,30.6z"/>
		<path class="st5" d="M22.1,31.7c0-0.1,0-0.2,0.2-0.2C22.2,31.6,22.2,31.7,22.1,31.7z"/>
		<path class="st7" d="M20.3,30.5c0.2,0,0.3,0.2,0.5,0.3c0.2,0.1,0.4,0.3,0.5,0.4c0.1,0,0.1,0.1,0.1,0.2c-0.2,0-0.2-0.1-0.4-0.2
			C20.8,31,20.6,30.8,20.3,30.5z"/>
		<path class="st7" d="M21.5,31.4c0.2,0,0.2,0.1,0.3,0.2C21.7,31.5,21.5,31.5,21.5,31.4z"/>
	</g>
	<text transform="matrix(0.9022 -1.376945e-02 1.526005e-02 0.9999 9.1943 39.651)" class="st8 st9 st10">tik-tech.co</text>
</g>
</svg>
